# xmcd
#
# Track frame offsets: 
#        150
#        17374
#        60415
#        78282
#        98982
#        118797
#        147521
#        168551
#        180305
#        193704
#        214696
#        233675
#        249864
#
# Disc length: 3722 seconds
#
# Revision: 0
# Processed by: cddbd v1.5.2PL0 Copyright (c) Steve Scherf et al.
# Submitted via: ExactAudioCopyFreeDBPlugin 1.0
#
DISCID=a20e880d
DTITLE=Billy Strings - Turmoil And Tinfoil
DYEAR=2017
DGENRE=country
TTITLE0=On The Line
TTITLE1=Meet Me At The Creek
TTITLE2=All Of Tomorrow
TTITLE3=While Im Waiting Here
TTITLE4=Living Like An Animal
TTITLE5=Turmoil And Tinfoil
TTITLE6=Salty Sheep
TTITLE7=Spinning
TTITLE8=Dealing Despair
TTITLE9=Pyramid Country
TTITLE10=Doin Things Right
TTITLE11=These Memories Of You
TTITLE12=107
EXTD=
EXTT0=
EXTT1=
EXTT2=
EXTT3=
EXTT4=
EXTT5=
EXTT6=
EXTT7=
EXTT8=
EXTT9=
EXTT10=
EXTT11=
EXTT12=
PLAYORDER=
